# xmcd
#
# Track frame offsets: 
#        150
#        13108
#        28401
#        44878
#        59676
#        75449
#        96667
#        112681
#        123484
#        142927
#        163471
#        188461
#
# Disc length: 2797 seconds
#
# Revision: 1
# Processed by: cddbd v1.5.2PL0 Copyright (c) Steve Scherf et al.
# Submitted via: ExactAudioCopy v1.0b3
#
DISCID=a90aeb0c
DTITLE=The Underdogs - Dog Tales
DYEAR=2001
DGENRE=Blues
TTITLE0=To The Top
TTITLE1=What A Lady
TTITLE2=I Don't Wanna Go
TTITLE3=Mouth Minus Brain
TTITLE4=Long Summer Days
TTITLE5=I feel Funky
TTITLE6=Ain't No Doubt
TTITLE7=Climb The Stars
TTITLE8=Drivin
TTITLE9=Conundrum Bossa Nova aka UD1
TTITLE10=Then She Got To Know Me
TTITLE11=Bad Man
EXTD=
EXTT0=
EXTT1=
EXTT2=
EXTT3=
EXTT4=
EXTT5=
EXTT6=
EXTT7=
EXTT8=
EXTT9=
EXTT10=
EXTT11=
PLAYORDER=
